G75*
G70*
%OFA0B0*%
%FSLAX24Y24*%
%IPPOS*%
%LPD*%
%AMOC8*
5,1,8,0,0,1.08239X$1,22.5*
%
%ADD10C,0.0000*%
%ADD11C,0.0080*%
%ADD12C,0.0050*%
%ADD13C,0.0040*%
%ADD14C,0.0060*%
%ADD15R,0.0079X0.0079*%
%ADD16R,0.0059X0.0098*%
%ADD17C,0.0030*%
D10*
X000280Y001800D02*
X000280Y019800D01*
X018280Y019800D01*
X018280Y001800D01*
X000280Y001800D01*
X011940Y017900D02*
X011942Y017950D01*
X011948Y018000D01*
X011958Y018049D01*
X011971Y018098D01*
X011989Y018145D01*
X012010Y018191D01*
X012034Y018234D01*
X012062Y018276D01*
X012093Y018316D01*
X012127Y018353D01*
X012164Y018387D01*
X012204Y018418D01*
X012246Y018446D01*
X012289Y018470D01*
X012335Y018491D01*
X012382Y018509D01*
X012431Y018522D01*
X012480Y018532D01*
X012530Y018538D01*
X012580Y018540D01*
X012630Y018538D01*
X012680Y018532D01*
X012729Y018522D01*
X012778Y018509D01*
X012825Y018491D01*
X012871Y018470D01*
X012914Y018446D01*
X012956Y018418D01*
X012996Y018387D01*
X013033Y018353D01*
X013067Y018316D01*
X013098Y018276D01*
X013126Y018234D01*
X013150Y018191D01*
X013171Y018145D01*
X013189Y018098D01*
X013202Y018049D01*
X013212Y018000D01*
X013218Y017950D01*
X013220Y017900D01*
X013218Y017850D01*
X013212Y017800D01*
X013202Y017751D01*
X013189Y017702D01*
X013171Y017655D01*
X013150Y017609D01*
X013126Y017566D01*
X013098Y017524D01*
X013067Y017484D01*
X013033Y017447D01*
X012996Y017413D01*
X012956Y017382D01*
X012914Y017354D01*
X012871Y017330D01*
X012825Y017309D01*
X012778Y017291D01*
X012729Y017278D01*
X012680Y017268D01*
X012630Y017262D01*
X012580Y017260D01*
X012530Y017262D01*
X012480Y017268D01*
X012431Y017278D01*
X012382Y017291D01*
X012335Y017309D01*
X012289Y017330D01*
X012246Y017354D01*
X012204Y017382D01*
X012164Y017413D01*
X012127Y017447D01*
X012093Y017484D01*
X012062Y017524D01*
X012034Y017566D01*
X012010Y017609D01*
X011989Y017655D01*
X011971Y017702D01*
X011958Y017751D01*
X011948Y017800D01*
X011942Y017850D01*
X011940Y017900D01*
X015940Y017900D02*
X015942Y017950D01*
X015948Y018000D01*
X015958Y018049D01*
X015971Y018098D01*
X015989Y018145D01*
X016010Y018191D01*
X016034Y018234D01*
X016062Y018276D01*
X016093Y018316D01*
X016127Y018353D01*
X016164Y018387D01*
X016204Y018418D01*
X016246Y018446D01*
X016289Y018470D01*
X016335Y018491D01*
X016382Y018509D01*
X016431Y018522D01*
X016480Y018532D01*
X016530Y018538D01*
X016580Y018540D01*
X016630Y018538D01*
X016680Y018532D01*
X016729Y018522D01*
X016778Y018509D01*
X016825Y018491D01*
X016871Y018470D01*
X016914Y018446D01*
X016956Y018418D01*
X016996Y018387D01*
X017033Y018353D01*
X017067Y018316D01*
X017098Y018276D01*
X017126Y018234D01*
X017150Y018191D01*
X017171Y018145D01*
X017189Y018098D01*
X017202Y018049D01*
X017212Y018000D01*
X017218Y017950D01*
X017220Y017900D01*
X017218Y017850D01*
X017212Y017800D01*
X017202Y017751D01*
X017189Y017702D01*
X017171Y017655D01*
X017150Y017609D01*
X017126Y017566D01*
X017098Y017524D01*
X017067Y017484D01*
X017033Y017447D01*
X016996Y017413D01*
X016956Y017382D01*
X016914Y017354D01*
X016871Y017330D01*
X016825Y017309D01*
X016778Y017291D01*
X016729Y017278D01*
X016680Y017268D01*
X016630Y017262D01*
X016580Y017260D01*
X016530Y017262D01*
X016480Y017268D01*
X016431Y017278D01*
X016382Y017291D01*
X016335Y017309D01*
X016289Y017330D01*
X016246Y017354D01*
X016204Y017382D01*
X016164Y017413D01*
X016127Y017447D01*
X016093Y017484D01*
X016062Y017524D01*
X016034Y017566D01*
X016010Y017609D01*
X015989Y017655D01*
X015971Y017702D01*
X015958Y017751D01*
X015948Y017800D01*
X015942Y017850D01*
X015940Y017900D01*
D11*
X017280Y019950D02*
X011880Y019950D01*
X011880Y013800D01*
X017280Y013800D01*
X017280Y019950D01*
X016704Y013660D02*
X016704Y013240D01*
X016424Y013660D01*
X016424Y013240D01*
X016244Y013240D02*
X016244Y013660D01*
X015964Y013660D02*
X016244Y013240D01*
X015964Y013240D02*
X015964Y013660D01*
X015783Y013590D02*
X015713Y013660D01*
X015573Y013660D01*
X015503Y013590D01*
X015503Y013310D01*
X015573Y013240D01*
X015713Y013240D01*
X015783Y013310D01*
X015783Y013590D01*
X015323Y013590D02*
X015253Y013660D01*
X015113Y013660D01*
X015043Y013590D01*
X015043Y013310D01*
X015113Y013240D01*
X015253Y013240D01*
X015323Y013310D01*
X014863Y013170D02*
X014582Y013170D01*
X014402Y013240D02*
X014262Y013380D01*
X014332Y013380D02*
X014122Y013380D01*
X014122Y013240D02*
X014122Y013660D01*
X014332Y013660D01*
X014402Y013590D01*
X014402Y013450D01*
X014332Y013380D01*
X013942Y013310D02*
X013942Y013590D01*
X013872Y013660D01*
X013732Y013660D01*
X013662Y013590D01*
X013662Y013310D01*
X013732Y013240D01*
X013872Y013240D01*
X013942Y013310D01*
X013481Y013310D02*
X013411Y013240D01*
X013271Y013240D01*
X013201Y013310D01*
X013271Y013450D02*
X013411Y013450D01*
X013481Y013380D01*
X013481Y013310D01*
X013271Y013450D02*
X013201Y013520D01*
X013201Y013590D01*
X013271Y013660D01*
X013411Y013660D01*
X013481Y013590D01*
X013021Y013660D02*
X013021Y013240D01*
X012741Y013660D01*
X012741Y013240D01*
X012561Y013240D02*
X012280Y013240D01*
X012280Y013660D01*
X012561Y013660D01*
X012421Y013450D02*
X012280Y013450D01*
X012100Y013380D02*
X012100Y013310D01*
X012030Y013240D01*
X011890Y013240D01*
X011820Y013310D01*
X011890Y013450D02*
X011820Y013520D01*
X011820Y013590D01*
X011890Y013660D01*
X012030Y013660D01*
X012100Y013590D01*
X012030Y013450D02*
X012100Y013380D01*
X012030Y013450D02*
X011890Y013450D01*
X011290Y012741D02*
X011150Y012601D01*
X011150Y012671D02*
X011150Y012461D01*
X011290Y012461D02*
X010870Y012461D01*
X010870Y012671D01*
X010940Y012741D01*
X011080Y012741D01*
X011150Y012671D01*
X011290Y012281D02*
X010870Y012281D01*
X010870Y012000D02*
X011290Y012000D01*
X011150Y012141D01*
X011290Y012281D01*
X011080Y011820D02*
X010940Y011820D01*
X010870Y011750D01*
X010870Y011540D01*
X011290Y011540D01*
X011150Y011540D02*
X011150Y011750D01*
X011080Y011820D01*
X009520Y011698D02*
X009380Y011838D01*
X009520Y011978D01*
X009100Y011978D01*
X009100Y012158D02*
X009100Y012369D01*
X009170Y012439D01*
X009310Y012439D01*
X009380Y012369D01*
X009380Y012158D01*
X009520Y012158D02*
X009100Y012158D01*
X009380Y012299D02*
X009520Y012439D01*
X009520Y011698D02*
X009100Y011698D01*
X009170Y011518D02*
X009310Y011518D01*
X009380Y011448D01*
X009380Y011238D01*
X009520Y011238D02*
X009100Y011238D01*
X009100Y011448D01*
X009170Y011518D01*
X009170Y011058D02*
X009310Y011058D01*
X009380Y010988D01*
X009380Y010777D01*
X009520Y010777D02*
X009100Y010777D01*
X009100Y010988D01*
X009170Y011058D01*
X009170Y010597D02*
X009100Y010527D01*
X009100Y010387D01*
X009170Y010317D01*
X009240Y010317D01*
X009310Y010387D01*
X009310Y010527D01*
X009380Y010597D01*
X009450Y010597D01*
X009520Y010527D01*
X009520Y010387D01*
X009450Y010317D01*
X009520Y010150D02*
X009520Y010010D01*
X009520Y010080D02*
X009100Y010080D01*
X009100Y010010D02*
X009100Y010150D01*
X008911Y010290D02*
X008630Y010010D01*
X008630Y009940D01*
X008450Y009940D02*
X008310Y010080D01*
X008380Y010080D02*
X008170Y010080D01*
X008170Y009940D02*
X008170Y010360D01*
X008380Y010360D01*
X008450Y010290D01*
X008450Y010150D01*
X008380Y010080D01*
X008630Y010360D02*
X008911Y010360D01*
X008911Y010290D01*
X009140Y008331D02*
X009140Y008050D01*
X009140Y008191D02*
X008720Y008191D01*
X008860Y008050D01*
X008790Y007870D02*
X008720Y007800D01*
X008720Y007660D01*
X008790Y007590D01*
X009070Y007590D01*
X009140Y007660D01*
X009140Y007800D01*
X009070Y007870D01*
X009252Y005894D02*
X008425Y005894D01*
X009252Y005894D02*
X009252Y005618D01*
X009252Y003768D02*
X009252Y001681D01*
X005708Y001681D01*
X005708Y005894D01*
X006535Y005894D01*
X005540Y005083D02*
X005330Y004872D01*
X005400Y004802D02*
X005120Y005083D01*
X005120Y004802D02*
X005540Y004802D01*
X005470Y004622D02*
X005540Y004552D01*
X005540Y004412D01*
X005470Y004342D01*
X005190Y004342D01*
X005120Y004412D01*
X005120Y004552D01*
X005190Y004622D01*
X005260Y004162D02*
X005540Y004162D01*
X005330Y004162D02*
X005330Y003882D01*
X005260Y003882D02*
X005120Y004022D01*
X005260Y004162D01*
X005260Y003882D02*
X005540Y003882D01*
X005470Y003631D02*
X005120Y003631D01*
X005120Y003561D02*
X005120Y003701D01*
X005470Y003631D02*
X005540Y003561D01*
X005540Y003491D01*
X005470Y003421D01*
X005540Y003241D02*
X005400Y003101D01*
X005400Y003171D02*
X005400Y002961D01*
X005540Y002961D02*
X005120Y002961D01*
X005120Y003171D01*
X005190Y003241D01*
X005330Y003241D01*
X005400Y003171D01*
X005540Y002781D02*
X005120Y002781D01*
X005120Y002500D02*
X005540Y002500D01*
X005400Y002641D01*
X005540Y002781D01*
X005330Y002320D02*
X005190Y002320D01*
X005120Y002250D01*
X005120Y002040D01*
X005540Y002040D01*
X005400Y002040D02*
X005400Y002250D01*
X005330Y002320D01*
X004080Y003200D02*
X004080Y003993D01*
X003730Y004800D02*
X002030Y004800D01*
X002020Y004940D02*
X002020Y005360D01*
X002230Y005360D01*
X002300Y005290D01*
X002300Y005150D01*
X002230Y005080D01*
X002020Y005080D01*
X002480Y005080D02*
X002691Y005080D01*
X002761Y005150D01*
X002761Y005290D01*
X002691Y005360D01*
X002480Y005360D01*
X002480Y004940D01*
X002621Y005080D02*
X002761Y004940D01*
X002941Y005010D02*
X002941Y005290D01*
X003011Y005360D01*
X003151Y005360D01*
X003221Y005290D01*
X003221Y005010D01*
X003151Y004940D01*
X003011Y004940D01*
X002941Y005010D01*
X003401Y005010D02*
X003471Y004940D01*
X003611Y004940D01*
X003681Y005010D01*
X003681Y005150D01*
X003541Y005150D01*
X003401Y005290D02*
X003401Y005010D01*
X003401Y005290D02*
X003471Y005360D01*
X003611Y005360D01*
X003681Y005290D01*
X003398Y005680D02*
X003187Y005680D01*
X003187Y005540D02*
X003187Y005960D01*
X003398Y005960D01*
X003468Y005890D01*
X003468Y005750D01*
X003398Y005680D01*
X003007Y005680D02*
X003007Y005610D01*
X002937Y005540D01*
X002797Y005540D01*
X002727Y005610D01*
X002797Y005750D02*
X002727Y005820D01*
X002727Y005890D01*
X002797Y005960D01*
X002937Y005960D01*
X003007Y005890D01*
X002937Y005750D02*
X003007Y005680D01*
X002937Y005750D02*
X002797Y005750D01*
X002560Y005540D02*
X002420Y005540D01*
X002490Y005540D02*
X002490Y005960D01*
X002420Y005960D02*
X002560Y005960D01*
X001680Y004005D02*
X001680Y003200D01*
X002030Y002400D02*
X003730Y002400D01*
X002180Y003600D02*
X002182Y003652D01*
X002188Y003704D01*
X002198Y003756D01*
X002211Y003806D01*
X002228Y003856D01*
X002249Y003904D01*
X002274Y003950D01*
X002302Y003994D01*
X002333Y004036D01*
X002367Y004076D01*
X002404Y004113D01*
X002444Y004147D01*
X002486Y004178D01*
X002530Y004206D01*
X002576Y004231D01*
X002624Y004252D01*
X002674Y004269D01*
X002724Y004282D01*
X002776Y004292D01*
X002828Y004298D01*
X002880Y004300D01*
X002932Y004298D01*
X002984Y004292D01*
X003036Y004282D01*
X003086Y004269D01*
X003136Y004252D01*
X003184Y004231D01*
X003230Y004206D01*
X003274Y004178D01*
X003316Y004147D01*
X003356Y004113D01*
X003393Y004076D01*
X003427Y004036D01*
X003458Y003994D01*
X003486Y003950D01*
X003511Y003904D01*
X003532Y003856D01*
X003549Y003806D01*
X003562Y003756D01*
X003572Y003704D01*
X003578Y003652D01*
X003580Y003600D01*
X003578Y003548D01*
X003572Y003496D01*
X003562Y003444D01*
X003549Y003394D01*
X003532Y003344D01*
X003511Y003296D01*
X003486Y003250D01*
X003458Y003206D01*
X003427Y003164D01*
X003393Y003124D01*
X003356Y003087D01*
X003316Y003053D01*
X003274Y003022D01*
X003230Y002994D01*
X003184Y002969D01*
X003136Y002948D01*
X003086Y002931D01*
X003036Y002918D01*
X002984Y002908D01*
X002932Y002902D01*
X002880Y002900D01*
X002828Y002902D01*
X002776Y002908D01*
X002724Y002918D01*
X002674Y002931D01*
X002624Y002948D01*
X002576Y002969D01*
X002530Y002994D01*
X002486Y003022D01*
X002444Y003053D01*
X002404Y003087D01*
X002367Y003124D01*
X002333Y003164D01*
X002302Y003206D01*
X002274Y003250D01*
X002249Y003296D01*
X002228Y003344D01*
X002211Y003394D01*
X002198Y003444D01*
X002188Y003496D01*
X002182Y003548D01*
X002180Y003600D01*
X004570Y006640D02*
X004570Y007060D01*
X004780Y007060D01*
X004850Y006990D01*
X004850Y006850D01*
X004780Y006780D01*
X004570Y006780D01*
X004710Y006780D02*
X004850Y006640D01*
X005030Y006850D02*
X005311Y006850D01*
X005241Y006640D02*
X005241Y007060D01*
X005030Y006850D01*
X005079Y009471D02*
X005009Y009542D01*
X005009Y009682D01*
X005220Y009682D01*
X005290Y009612D01*
X005290Y009542D01*
X005220Y009471D01*
X005079Y009471D01*
X005009Y009682D02*
X005149Y009822D01*
X005290Y009892D01*
X005470Y009682D02*
X005680Y009682D01*
X005750Y009612D01*
X005750Y009542D01*
X005680Y009471D01*
X005540Y009471D01*
X005470Y009542D01*
X005470Y009682D01*
X005610Y009822D01*
X005750Y009892D01*
X004829Y009822D02*
X004829Y009752D01*
X004549Y009471D01*
X004829Y009471D01*
X004829Y009822D02*
X004759Y009892D01*
X004619Y009892D01*
X004549Y009822D01*
X004369Y009822D02*
X004369Y009752D01*
X004299Y009682D01*
X004159Y009682D01*
X004089Y009752D01*
X004089Y009822D01*
X004159Y009892D01*
X004299Y009892D01*
X004369Y009822D01*
X004299Y009682D02*
X004369Y009612D01*
X004369Y009542D01*
X004299Y009471D01*
X004159Y009471D01*
X004089Y009542D01*
X004089Y009612D01*
X004159Y009682D01*
X003908Y009682D02*
X003908Y009822D01*
X003838Y009892D01*
X003628Y009892D01*
X003628Y009471D01*
X003628Y009612D02*
X003838Y009612D01*
X003908Y009682D01*
X003448Y009612D02*
X003448Y009542D01*
X003378Y009471D01*
X003238Y009471D01*
X003168Y009542D01*
X003238Y009682D02*
X003378Y009682D01*
X003448Y009612D01*
X003448Y009822D02*
X003378Y009892D01*
X003238Y009892D01*
X003168Y009822D01*
X003168Y009752D01*
X003238Y009682D01*
X002988Y009892D02*
X002707Y009892D01*
X002707Y009471D01*
X002988Y009471D01*
X002848Y009682D02*
X002707Y009682D01*
X009020Y015669D02*
X009020Y015879D01*
X009090Y015949D01*
X009230Y015949D01*
X009300Y015879D01*
X009300Y015669D01*
X009440Y015669D02*
X009020Y015669D01*
X009300Y015809D02*
X009440Y015949D01*
X009440Y016130D02*
X009440Y016410D01*
X009440Y016270D02*
X009020Y016270D01*
X009160Y016130D01*
X009211Y018390D02*
X008930Y018390D01*
X008930Y018810D01*
X009211Y018810D01*
X009391Y018810D02*
X009601Y018810D01*
X009671Y018740D01*
X009671Y018460D01*
X009601Y018390D01*
X009391Y018390D01*
X009391Y018810D01*
X009071Y018600D02*
X008930Y018600D01*
X008750Y018390D02*
X008470Y018390D01*
X008470Y018810D01*
X009851Y018670D02*
X009991Y018810D01*
X009991Y018390D01*
X009851Y018390D02*
X010131Y018390D01*
D12*
X007658Y019588D02*
X001280Y019588D01*
X001280Y010100D01*
X007658Y010100D01*
X007658Y019588D01*
X010980Y011350D02*
X010980Y002350D01*
X017730Y002350D01*
X017730Y011350D01*
X010980Y011350D01*
X004380Y007800D02*
X004380Y006400D01*
X004080Y006100D01*
X003580Y006100D01*
X003380Y006300D01*
X003180Y006100D01*
X002580Y006100D01*
X002380Y006300D01*
X002180Y006100D01*
X001680Y006100D01*
X001380Y006400D01*
X001380Y007800D01*
X001680Y008100D01*
X002180Y008100D01*
X002380Y007900D01*
X002580Y008100D01*
X003180Y008100D01*
X003380Y007900D01*
X003580Y008100D01*
X004080Y008100D01*
X004380Y007800D01*
D13*
X009063Y017603D02*
X009086Y017580D01*
X009112Y017560D01*
X009140Y017543D01*
X009169Y017529D01*
X009200Y017518D01*
X009231Y017511D01*
X009264Y017507D01*
X009296Y017507D01*
X009329Y017511D01*
X009360Y017518D01*
X009391Y017529D01*
X009420Y017543D01*
X009448Y017560D01*
X009474Y017580D01*
X009497Y017603D01*
X009497Y017997D02*
X009474Y018020D01*
X009448Y018040D01*
X009420Y018057D01*
X009391Y018071D01*
X009360Y018082D01*
X009329Y018089D01*
X009296Y018093D01*
X009264Y018093D01*
X009231Y018089D01*
X009200Y018082D01*
X009169Y018071D01*
X009140Y018057D01*
X009112Y018040D01*
X009086Y018020D01*
X009063Y017997D01*
X005877Y017994D02*
X005570Y017994D01*
X005877Y018301D01*
X005877Y018378D01*
X005801Y018454D01*
X005647Y018454D01*
X005570Y018378D01*
X005264Y018454D02*
X005264Y017994D01*
X005417Y017994D02*
X005110Y017994D01*
X004957Y018224D02*
X004650Y018224D01*
X004496Y018224D02*
X004496Y018378D01*
X004419Y018454D01*
X004189Y018454D01*
X004189Y017994D01*
X004189Y018147D02*
X004419Y018147D01*
X004496Y018224D01*
X004036Y018147D02*
X004036Y018071D01*
X003959Y017994D01*
X003806Y017994D01*
X003729Y018071D01*
X003806Y018224D02*
X003959Y018224D01*
X004036Y018147D01*
X004036Y018378D02*
X003959Y018454D01*
X003806Y018454D01*
X003729Y018378D01*
X003729Y018301D01*
X003806Y018224D01*
X003575Y017994D02*
X003269Y017994D01*
X003269Y018454D01*
X003575Y018454D01*
X003422Y018224D02*
X003269Y018224D01*
X005110Y018301D02*
X005264Y018454D01*
X014250Y010348D02*
X014250Y010041D01*
X014250Y010194D02*
X014710Y010194D01*
X014633Y009887D02*
X014250Y009887D01*
X014250Y009580D02*
X014633Y009580D01*
X014710Y009657D01*
X014710Y009811D01*
X014633Y009887D01*
X014633Y009427D02*
X014326Y009427D01*
X014250Y009350D01*
X014250Y009197D01*
X014326Y009120D01*
X014633Y009120D01*
X014710Y009197D01*
X014710Y009350D01*
X014633Y009427D01*
X014633Y007768D02*
X014710Y007692D01*
X014710Y007538D01*
X014633Y007462D01*
X014326Y007462D01*
X014250Y007538D01*
X014250Y007692D01*
X014326Y007768D01*
X014326Y007308D02*
X014250Y007231D01*
X014250Y007001D01*
X014710Y007001D01*
X014710Y007231D01*
X014633Y007308D01*
X014326Y007308D01*
X014326Y006387D02*
X014250Y006311D01*
X014250Y006157D01*
X014326Y006080D01*
X014633Y006080D01*
X014710Y006157D01*
X014710Y006311D01*
X014633Y006387D01*
X014633Y005927D02*
X014326Y005927D01*
X014250Y005850D01*
X014250Y005620D01*
X014710Y005620D01*
X014710Y005850D01*
X014633Y005927D01*
X014710Y003484D02*
X014250Y003484D01*
X014250Y003177D02*
X014710Y003484D01*
X014710Y003177D02*
X014250Y003177D01*
X014250Y003023D02*
X014250Y002870D01*
X014250Y002947D02*
X014710Y002947D01*
X014710Y003023D02*
X014710Y002870D01*
D14*
X009380Y008000D02*
X009382Y008066D01*
X009388Y008131D01*
X009398Y008196D01*
X009411Y008261D01*
X009429Y008324D01*
X009450Y008387D01*
X009475Y008447D01*
X009504Y008507D01*
X009536Y008564D01*
X009571Y008620D01*
X009610Y008673D01*
X009652Y008724D01*
X009696Y008772D01*
X009744Y008817D01*
X009794Y008860D01*
X009847Y008899D01*
X009902Y008936D01*
X009959Y008969D01*
X010018Y008998D01*
X010078Y009024D01*
X010140Y009046D01*
X010203Y009065D01*
X010267Y009079D01*
X010332Y009090D01*
X010398Y009097D01*
X010464Y009100D01*
X010529Y009099D01*
X010595Y009094D01*
X010660Y009085D01*
X010725Y009072D01*
X010788Y009056D01*
X010851Y009036D01*
X010912Y009011D01*
X010972Y008984D01*
X011030Y008953D01*
X011086Y008918D01*
X011140Y008880D01*
X011191Y008839D01*
X011240Y008795D01*
X011286Y008748D01*
X011330Y008699D01*
X011370Y008647D01*
X011407Y008592D01*
X011441Y008536D01*
X011471Y008477D01*
X011498Y008417D01*
X011521Y008356D01*
X011540Y008293D01*
X011556Y008229D01*
X011568Y008164D01*
X011576Y008099D01*
X011580Y008033D01*
X011580Y007967D01*
X011576Y007901D01*
X011568Y007836D01*
X011556Y007771D01*
X011540Y007707D01*
X011521Y007644D01*
X011498Y007583D01*
X011471Y007523D01*
X011441Y007464D01*
X011407Y007408D01*
X011370Y007353D01*
X011330Y007301D01*
X011286Y007252D01*
X011240Y007205D01*
X011191Y007161D01*
X011140Y007120D01*
X011086Y007082D01*
X011030Y007047D01*
X010972Y007016D01*
X010912Y006989D01*
X010851Y006964D01*
X010788Y006944D01*
X010725Y006928D01*
X010660Y006915D01*
X010595Y006906D01*
X010529Y006901D01*
X010464Y006900D01*
X010398Y006903D01*
X010332Y006910D01*
X010267Y006921D01*
X010203Y006935D01*
X010140Y006954D01*
X010078Y006976D01*
X010018Y007002D01*
X009959Y007031D01*
X009902Y007064D01*
X009847Y007101D01*
X009794Y007140D01*
X009744Y007183D01*
X009696Y007228D01*
X009652Y007276D01*
X009610Y007327D01*
X009571Y007380D01*
X009536Y007436D01*
X009504Y007493D01*
X009475Y007553D01*
X009450Y007613D01*
X009429Y007676D01*
X009411Y007739D01*
X009398Y007804D01*
X009388Y007869D01*
X009382Y007934D01*
X009380Y008000D01*
X010830Y008650D02*
X010980Y008650D01*
X011130Y008650D01*
X010980Y008650D02*
X010980Y008500D01*
X010980Y008650D02*
X010980Y008800D01*
X010430Y009700D02*
X009930Y009700D01*
X009680Y009950D01*
X009680Y010450D01*
X009930Y010700D01*
X009680Y010950D01*
X009680Y011450D01*
X009930Y011700D01*
X009680Y011950D01*
X009680Y012450D01*
X009930Y012700D01*
X010430Y012700D01*
X010680Y012450D01*
X010680Y011950D01*
X010430Y011700D01*
X010680Y011450D01*
X010680Y010950D01*
X010430Y010700D01*
X010680Y010450D01*
X010680Y009950D01*
X010430Y009700D01*
X010430Y010700D02*
X009930Y010700D01*
X009930Y011700D02*
X010430Y011700D01*
X011380Y011700D02*
X011480Y011600D01*
X012280Y011600D01*
X012380Y011700D01*
X012480Y011600D01*
X013280Y011600D01*
X013380Y011700D01*
X013380Y012500D01*
X013280Y012600D01*
X012480Y012600D01*
X012380Y012500D01*
X012280Y012600D01*
X011480Y012600D01*
X011380Y012500D01*
X011380Y011700D01*
D15*
X009280Y017800D03*
D16*
X009487Y017574D03*
D17*
X004665Y008194D02*
X004665Y007947D01*
X004665Y008070D02*
X004295Y008070D01*
X004418Y007947D01*
M02*
